<?xml version="1.0" standalone="no"?>
<!DOCTYPE svg PUBLIC "-//W3C//DTD SVG 20010904//EN"
 "http://www.w3.org/TR/2001/REC-SVG-20010904/DTD/svg10.dtd">
<svg version="1.0" xmlns="http://www.w3.org/2000/svg"
 width="592.000000pt" height="414.000000pt" viewBox="0 0 592.000000 414.000000"
 preserveAspectRatio="xMidYMid meet">

<g transform="translate(0.000000,414.000000) scale(0.100000,-0.100000)"
fill="#000000" stroke="none">
<path d="M3257 2784 c-75 -18 -154 -56 -219 -105 -58 -43 -147 -149 -169 -199
-13 -29 -16 -31 -49 -23 -184 42 -349 -74 -350 -247 0 -112 45 -190 140 -244
43 -24 66 -30 115 -31 33 0 76 4 95 8 34 8 36 7 55 -34 11 -24 53 -77 92 -120
153 -162 370 -225 587 -169 43 11 105 34 139 52 77 41 194 155 236 229 l32 57
47 -15 c62 -19 136 -11 199 21 92 46 143 130 143 236 0 194 -190 320 -371 245
-13 -5 -25 8 -50 52 -75 132 -235 253 -380 288 -79 18 -215 18 -292 -1z m310
-43 c133 -41 268 -149 328 -264 l29 -55 -40 -45 c-47 -54 -64 -102 -64 -183 0
-69 26 -134 73 -182 l31 -32 -21 -43 c-57 -117 -178 -220 -316 -268 -68 -24
-98 -29 -177 -29 -170 0 -292 50 -405 164 -38 39 -81 92 -95 118 l-25 47 37
38 c105 107 108 265 10 375 l-46 50 24 44 c34 65 129 164 196 204 98 59 174
79 294 80 75 0 123 -6 167 -19z m-752 -325 c17 -12 18 -18 7 -52 -22 -67 -26
-211 -8 -294 10 -48 12 -78 6 -84 -5 -5 -37 -12 -70 -14 -50 -4 -69 0 -114 22
-174 85 -175 325 -4 410 59 30 151 36 183 12z m1376 -13 c130 -67 165 -230 74
-350 -52 -67 -170 -101 -254 -72 -36 13 -36 11 -15 109 18 84 13 203 -12 272
l-14 39 33 14 c53 24 126 19 188 -12z m-1231 -140 c22 -77 -5 -178 -64 -232
-19 -18 -27 -21 -30 -10 -36 105 -35 258 0 359 9 23 80 -65 94 -117z m1000 35
c14 -78 8 -193 -10 -246 -12 -32 -13 -33 -32 -15 -51 46 -78 148 -59 219 12
46 67 128 80 119 5 -3 15 -38 21 -77z"/>
<path d="M3090 2275 c0 -11 11 -15 40 -15 l40 0 0 -85 0 -85 40 0 40 0 0 85 0
85 40 0 c29 0 40 4 40 15 0 13 -20 15 -120 15 -100 0 -120 -2 -120 -15z"/>
<path d="M3510 2190 l0 -100 35 0 c33 0 35 2 35 34 0 52 17 53 65 6 35 -34 48
-41 75 -38 l32 3 -41 30 c-48 36 -51 45 -12 45 31 0 41 14 41 60 0 59 -3 60
-121 60 l-109 0 0 -100z m180 40 c0 -30 -1 -30 -55 -30 -54 0 -55 0 -55 30 0
30 1 30 55 30 54 0 55 0 55 -30z"/>
<path d="M1873 2293 l-103 -4 0 -99 0 -100 108 0 c90 0 109 3 109 15 0 12 -15
15 -74 15 l-73 0 0 30 c0 28 3 30 35 30 24 0 35 5 35 15 0 10 -11 15 -35 15
-31 0 -35 3 -35 25 0 24 2 25 70 25 63 0 70 2 70 20 0 11 -1 19 -2 18 -2 -1
-49 -4 -105 -5z"/>
<path d="M2170 2190 l0 -100 105 0 c85 0 105 3 105 15 0 11 -16 15 -67 17
l-66 3 2 83 2 82 -40 0 -41 0 0 -100z"/>
<path d="M1770 1651 c0 -39 4 -51 15 -51 8 0 15 9 15 19 0 16 8 20 38 23 32 3
37 6 37 28 0 23 -4 25 -52 28 l-53 3 0 -50z m88 17 c-3 -7 -15 -13 -28 -13
-13 0 -25 6 -27 13 -3 8 6 12 27 12 21 0 30 -4 28 -12z"/>
<path d="M1982 1688 c-7 -7 -12 -24 -12 -38 0 -14 5 -31 12 -38 7 -7 24 -12
38 -12 14 0 31 5 38 12 7 7 12 24 12 38 0 14 -5 31 -12 38 -7 7 -24 12 -38 12
-14 0 -31 -5 -38 -12z m63 -38 c0 -18 -6 -26 -23 -28 -24 -4 -38 18 -28 44 3
9 15 14 28 12 17 -2 23 -10 23 -28z"/>
<path d="M2177 1693 c-4 -3 -7 -26 -7 -50 0 -37 3 -43 21 -43 14 0 19 5 16 15
-9 23 9 26 28 5 10 -11 27 -20 38 -20 21 0 21 0 1 16 -13 11 -15 17 -6 20 6 3
12 19 12 35 0 28 -2 29 -48 29 -27 0 -52 -3 -55 -7z m83 -29 c0 -11 -8 -14
-27 -12 -39 4 -42 28 -4 28 21 0 31 -5 31 -16z"/>
<path d="M2370 1690 c0 -5 9 -10 20 -10 17 0 20 -7 20 -40 0 -29 4 -40 15 -40
11 0 15 11 15 40 0 33 3 40 20 40 11 0 20 5 20 10 0 6 -25 10 -55 10 -30 0
-55 -4 -55 -10z"/>
<path d="M2562 1688 c-7 -7 -12 -24 -12 -38 0 -33 17 -50 50 -50 33 0 50 17
50 50 0 33 -17 50 -50 50 -14 0 -31 -5 -38 -12z m63 -38 c0 -18 -6 -26 -23
-28 -13 -2 -25 3 -28 12 -10 26 4 48 28 44 17 -2 23 -10 23 -28z"/>
<path d="M2730 1650 c0 -58 17 -68 22 -12 l3 37 20 -37 c15 -30 24 -38 47 -38
27 0 28 2 28 50 0 28 -4 50 -10 50 -5 0 -10 -16 -10 -35 0 -19 -4 -35 -8 -35
-5 0 -16 16 -25 35 -13 26 -23 35 -42 35 -23 0 -25 -3 -25 -50z"/>
</g>
</svg>
